<svg width="48" height="44" viewBox="0 0 48 44" fill="none" xmlns="http://www.w3.org/2000/svg">
<g clip-path="url(#clip0_1_2)">
<path d="M41.8859 5.0375C41.3926 4.71775 40.8286 4.5243 40.2432 4.47417C39.6579 4.42404 39.0692 4.51876 38.529 4.75L20.8261 11.7362C20.407 11.9072 19.9587 11.995 19.5062 11.995H8.17296C7.22177 11.995 6.30953 12.3736 5.63694 13.0476C4.96434 13.7215 4.58648 14.6356 4.58648 15.5887V15.8762H1V24.5012H4.58648V24.875C4.60896 25.8131 4.99672 26.7052 5.66689 27.3606C6.33707 28.016 7.2365 28.3828 8.17296 28.3825L12.4767 37.525C12.7682 38.1407 13.227 38.6615 13.8005 39.0276C14.374 39.3938 15.0389 39.5904 15.7189 39.595H17.5265C18.4727 39.5874 19.3776 39.2054 20.044 38.5323C20.7104 37.8592 21.0843 36.9494 21.0843 36.0012V28.7275L38.529 35.7137C38.958 35.8848 39.4157 35.9727 39.8775 35.9725C40.5939 35.9609 41.2916 35.7412 41.8859 35.34C42.3578 35.0207 42.7471 34.5934 43.0215 34.0935C43.2959 33.5936 43.4476 33.0353 43.464 32.465V7.99875C43.4613 7.41373 43.3162 6.8382 43.0412 6.32214C42.7662 5.80609 42.3696 5.36511 41.8859 5.0375ZM17.4978 15.5887V24.875H8.17296V15.5887H17.4978ZM17.4978 36.0012H15.6902L12.1611 28.3825H17.4978V36.0012ZM22.1459 25.3062C21.8052 25.1318 21.45 24.9875 21.0843 24.875V15.3875C21.4465 15.3126 21.8017 15.2068 22.1459 15.0712L39.8775 7.99875V32.3787L22.1459 25.3062ZM43.55 16.595V23.7825C44.5012 23.7825 45.4135 23.4039 46.0861 22.7299C46.7586 22.056 47.1365 21.1419 47.1365 20.1887C47.1365 19.2356 46.7586 18.3215 46.0861 17.6476C45.4135 16.9736 44.5012 16.595 43.55 16.595Z" fill="#C86B00"/>
</g>
<defs>
<clipPath id="clip0_1_2">
<rect width="48" height="44" fill="white"/>
</clipPath>
</defs>
</svg>
