<svg width="139" height="28" viewBox="0 0 139 28" fill="none" xmlns="http://www.w3.org/2000/svg">
<g clip-path="url(#clip0_1_3)">
<path d="M55.0341 13.2727C55.0341 15.2159 54.6563 16.8551 53.9006 18.1903C53.1449 19.5199 52.125 20.5284 50.8409 21.2159C49.5568 21.8977 48.125 22.2386 46.5455 22.2386C44.9545 22.2386 43.517 21.8949 42.233 21.2074C40.9545 20.5142 39.9375 19.5028 39.1818 18.1733C38.4318 16.8381 38.0568 15.2045 38.0568 13.2727C38.0568 11.3295 38.4318 9.69318 39.1818 8.36364C39.9375 7.02841 40.9545 6.01989 42.233 5.33807C43.517 4.65057 44.9545 4.30682 46.5455 4.30682C48.125 4.30682 49.5568 4.65057 50.8409 5.33807C52.125 6.01989 53.1449 7.02841 53.9006 8.36364C54.6563 9.69318 55.0341 11.3295 55.0341 13.2727ZM50.1591 13.2727C50.1591 12.2273 50.0199 11.3466 49.7415 10.6307C49.4688 9.90909 49.0625 9.36364 48.5227 8.99432C47.9886 8.61932 47.3295 8.43182 46.5455 8.43182C45.7614 8.43182 45.0994 8.61932 44.5597 8.99432C44.0256 9.36364 43.6193 9.90909 43.3409 10.6307C43.0682 11.3466 42.9318 12.2273 42.9318 13.2727C42.9318 14.3182 43.0682 15.2017 43.3409 15.9233C43.6193 16.6392 44.0256 17.1847 44.5597 17.5597C45.0994 17.929 45.7614 18.1136 46.5455 18.1136C47.3295 18.1136 47.9886 17.929 48.5227 17.5597C49.0625 17.1847 49.4688 16.6392 49.7415 15.9233C50.0199 15.2017 50.1591 14.3182 50.1591 13.2727Z" fill="white"/>
<path d="M58.9066 22V4.54545H66.4407C67.7361 4.54545 68.8696 4.80114 69.8412 5.3125C70.8128 5.82386 71.5685 6.54261 72.1083 7.46875C72.648 8.39489 72.9179 9.47727 72.9179 10.7159C72.9179 11.9659 72.6395 13.0483 72.0827 13.9631C71.5316 14.8778 70.756 15.5824 69.756 16.0767C68.7617 16.571 67.5997 16.8182 66.2702 16.8182H61.7702V13.1364H65.3157C65.8725 13.1364 66.3469 13.0398 66.7389 12.8466C67.1367 12.6477 67.4407 12.3665 67.6509 12.0028C67.8668 11.6392 67.9747 11.2102 67.9747 10.7159C67.9747 10.2159 67.8668 9.78977 67.6509 9.4375C67.4407 9.07955 67.1367 8.80682 66.7389 8.61932C66.3469 8.42614 65.8725 8.32954 65.3157 8.32954H63.6452V22H58.9066ZM81.0752 4.54545V22H76.3366V4.54545H81.0752ZM91.7168 22H85.0009V4.54545H91.6487C93.4441 4.54545 94.9953 4.89489 96.3021 5.59375C97.6146 6.28693 98.6259 7.28693 99.3362 8.59375C100.052 9.89489 100.41 11.4545 100.41 13.2727C100.41 15.0909 100.055 16.6534 99.3447 17.9602C98.6345 19.2614 97.6288 20.2614 96.3276 20.9602C95.0265 21.6534 93.4896 22 91.7168 22ZM89.7396 17.9773H91.5464C92.41 17.9773 93.1458 17.8381 93.7538 17.5597C94.3674 17.2812 94.8333 16.8011 95.1515 16.1193C95.4754 15.4375 95.6373 14.4886 95.6373 13.2727C95.6373 12.0568 95.4725 11.108 95.143 10.4261C94.8191 9.74432 94.3418 9.2642 93.7112 8.98579C93.0862 8.70739 92.3191 8.56818 91.41 8.56818H89.7396V17.9773ZM114.612 4.54545H119.351V15.7273C119.351 17.0568 119.033 18.2074 118.396 19.179C117.765 20.1449 116.885 20.892 115.754 21.4205C114.623 21.9432 113.311 22.2045 111.817 22.2045C110.311 22.2045 108.993 21.9432 107.862 21.4205C106.731 20.892 105.851 20.1449 105.22 19.179C104.595 18.2074 104.283 17.0568 104.283 15.7273V4.54545H109.021V15.3182C109.021 15.858 109.14 16.3409 109.379 16.767C109.618 17.1875 109.947 17.517 110.368 17.7557C110.794 17.9943 111.277 18.1136 111.817 18.1136C112.362 18.1136 112.845 17.9943 113.265 17.7557C113.686 17.517 114.015 17.1875 114.254 16.767C114.493 16.3409 114.612 15.858 114.612 15.3182V4.54545ZM123.283 22V4.54545H130.817C132.112 4.54545 133.246 4.78125 134.217 5.25284C135.189 5.72443 135.945 6.40341 136.485 7.28977C137.024 8.17614 137.294 9.23864 137.294 10.4773C137.294 11.7273 137.016 12.7812 136.459 13.6392C135.908 14.4972 135.132 15.1449 134.132 15.5824C133.138 16.0199 131.976 16.2386 130.646 16.2386H126.146V12.5568H129.692C130.249 12.5568 130.723 12.4886 131.115 12.3523C131.513 12.2102 131.817 11.9858 132.027 11.679C132.243 11.3722 132.351 10.9716 132.351 10.4773C132.351 9.97727 132.243 9.57102 132.027 9.25852C131.817 8.94034 131.513 8.70739 131.115 8.55966C130.723 8.40625 130.249 8.32954 129.692 8.32954H128.021V22H123.283ZM133.51 13.9886L137.874 22H132.726L128.465 13.9886H133.51Z" fill="#1A3A5F"/>
<g clip-path="url(#clip1_1_3)">
<path d="M26.9375 3.675C26.6367 3.48037 26.2926 3.36262 25.9356 3.3321C25.5786 3.30159 25.2195 3.35924 24.89 3.5L14.0925 7.7525C13.8369 7.85654 13.5635 7.91002 13.2875 7.91H6.375C5.79484 7.91 5.23844 8.14047 4.8282 8.5507C4.41797 8.96094 4.1875 9.51734 4.1875 10.0975V10.2725H2V15.5225H4.1875V15.75C4.20121 16.321 4.43771 16.864 4.84647 17.263C5.25523 17.6619 5.80382 17.8852 6.375 17.885L9 23.45C9.17775 23.8247 9.45759 24.1418 9.80738 24.3646C10.1572 24.5875 10.5627 24.7072 10.9775 24.71H12.08C12.6571 24.7054 13.209 24.4729 13.6155 24.0631C14.022 23.6534 14.25 23.0996 14.25 22.5225V18.095L24.89 22.3475C25.1517 22.4516 25.4308 22.5051 25.7125 22.505C26.1495 22.498 26.575 22.3642 26.9375 22.12C27.2253 21.9257 27.4628 21.6656 27.6301 21.3613C27.7975 21.0569 27.89 20.7172 27.9 20.37V5.4775C27.8984 5.1214 27.8099 4.77108 27.6422 4.45696C27.4744 4.14284 27.2325 3.87441 26.9375 3.675ZM12.0625 10.0975V15.75H6.375V10.0975H12.0625ZM12.0625 22.5225H10.96L8.8075 17.885H12.0625V22.5225ZM14.8975 16.0125C14.6897 15.9063 14.4731 15.8185 14.25 15.75V9.975C14.4709 9.92941 14.6876 9.86501 14.8975 9.7825L25.7125 5.4775V20.3175L14.8975 16.0125ZM27.9525 10.71V15.085C28.5327 15.085 29.0891 14.8545 29.4993 14.4443C29.9095 14.0341 30.14 13.4777 30.14 12.8975C30.14 12.3173 29.9095 11.7609 29.4993 11.3507C29.0891 10.9405 28.5327 10.71 27.9525 10.71Z" fill="#1A3A5F"/>
</g>
</g>
<defs>
<clipPath id="clip0_1_3">
<rect width="139" height="28" fill="white"/>
</clipPath>
<clipPath id="clip1_1_3">
<rect width="28" height="28" fill="white" transform="translate(2)"/>
</clipPath>
</defs>
</svg>
